<svg xmlns="http://www.w3.org/2000/svg" width="40" height="40" viewBox="0 0 40 40">
	<path fill="#68717B" d="M21.5,26a4.47,4.47,0,0,0-2.5.76V10L16.23,6.84a1,1,0,0,0-1.46,0L12,10V21l5,3.57V31h0a4.5,4.5,0,1,0,4.47-5Zm-6-6A1.5,1.5,0,1,1,17,18.5,1.5,1.5,0,0,1,15.5,20Zm6,13A2.5,2.5,0,1,1,24,30.5,2.5,2.5,0,0,1,21.5,33ZM12,26.76A4.5,4.5,0,1,0,14,31h0V24.43L12,23ZM9.5,33A2.5,2.5,0,1,1,12,30.5,2.5,2.5,0,0,1,9.5,33ZM34,8V32a3,3,0,0,1-6,0V30.13a3,3,0,0,1,.74-2l1.52-1.74a3,3,0,0,0,.74-2V21H25a1,1,0,0,1,0-2h5a1,1,0,0,0,0-2H25a1,1,0,0,1,0-2h5a1,1,0,0,0,0-2H25a1,1,0,0,1,0-2h5a1,1,0,0,0,0-2H25a1,1,0,0,1,0-2h8A1,1,0,0,1,34,8Z"/>
	<rect width="40" height="40" fill="none"/>
</svg>
