<svg xmlns="http://www.w3.org/2000/svg" width="40" height="40" viewBox="0 0 40 40">
	<rect width="40" height="40" fill="none" />
	<path fill="#68717B"
		d="M14.53,20l1.26,10a2.38,2.38,0,0,1-2.54,3,2.38,2.38,0,0,1-2.55-3L12,20h-.38c-3,0-4.68-1.78-4.6-4.73A43.37,43.37,0,0,1,8.1,7.45.57.57,0,0,1,8.65,7h.79a.56.56,0,0,1,.56.56V14a1,1,0,0,0,2,0V7.56A.56.56,0,0,1,12.56,7h.88a.56.56,0,0,1,.56.56V14a1,1,0,0,0,2,0V7.56A.56.56,0,0,1,16.56,7h.77a.57.57,0,0,1,.55.45A44.28,44.28,0,0,1,19,15.27C19.07,18.18,17.41,20,14.53,20ZM32,15.38C32,11.83,29.92,6,26.37,6s-5.62,5.83-5.62,9.38c0,3,1.49,4.95,4.11,5.47L23.7,30a2.38,2.38,0,0,0,2.55,3,2.38,2.38,0,0,0,2.54-3L27.63,20.9C30.4,20.46,32,18.48,32,15.38Z" />
</svg>